<svg xmlns="http://www.w3.org/2000/svg" viewBox="0 0 512 512"><defs><clipPath id="a"><path d="M274.27 28.512l-29.778 9.86s3.793 150.714-50.558 161.265c-35.844 41.53 5.51 1774.053 135.726 5.937 0 0-44.566-22.38-53.004-60.38-8.433-38.022-2.386-116.682-2.386-116.682z"/></clipPath><linearGradient id="b" x2="1" gradientUnits="userSpaceOnUse" gradientTransform="matrix(342.3 -115.5 -104.18 -307.2 77.29 572.51)"><stop offset="0" stop-color="#929669"/><stop offset=".231" stop-color="#929669"/><stop offset="1" stop-color="#fdfcf0"/></linearGradient><clipPath id="c"><path d="M290.324 174.05S549.086 344.478 488.46 698.423C430.08 955.566 292.247 1040.1 277.435 1072.38c-16.305 22.83-32.727 63.31-32.727 63.31l11.004-716.475S232.94 200.44 290.325 174.05z"/></clipPath><linearGradient id="d" x2="1" gradientUnits="userSpaceOnUse" gradientTransform="matrix(239.7 -930.52 -1001.2 -160.52 202.69 1128.96)"><stop offset="0" stop-color="#44aa3a"/><stop offset="1" stop-color="#3d9439"/></linearGradient><clipPath id="e"><path d="M229.34 164.527S-13.387 330.113.582 622.273c13.965 292.165 185.402 435.817 218.793 461.877 21.586 23.01 22.477 31.88 24.145 54.58 15.132-32.5 12.62-485.457 14.222-538.398 6.223-206.094-11.414-396.902-28.402-435.805z"/></clipPath><linearGradient id="f" x2="1" gradientUnits="userSpaceOnUse" gradientTransform="matrix(419.53 95.32 131.1 -391.7 -24.93 592.25)"><stop offset="0" stop-color="#40a73c"/><stop offset="1" stop-color="#5ebc45"/></linearGradient></defs><g clip-path="url(#a)" transform="matrix(.46 0 0 -.46 0 525.15)"><path fill="url(#b)" d="M274.27 28.512l-29.778 9.86s3.793 150.714-50.558 161.265c-35.844 41.53 5.51 1774.053 135.726 5.937 0 0-44.566-22.38-53.004-60.38-8.433-38.022-2.386-116.682-2.386-116.682"/></g><g clip-path="url(#c)" transform="matrix(.46 0 0 -.46 0 525.15)"><path fill="url(#d)" d="M290.324 174.05S549.086 344.478 488.46 698.423C430.08 955.566 292.247 1040.1 277.435 1072.38c-16.305 22.83-32.727 63.31-32.727 63.31l11.004-716.475S232.94 200.44 290.325 174.05"/></g><g clip-path="url(#e)" transform="matrix(.46 0 0 -.46 0 525.15)"><path fill="url(#f)" d="M229.34 164.527S-13.387 330.113.582 622.273c13.965 292.165 185.402 435.817 218.793 461.877 21.586 23.01 22.477 31.88 24.145 54.58 15.132-32.5 12.62-485.457 14.222-538.398 6.223-206.094-11.414-396.902-28.402-435.805"/></g></svg>