<?xml version="1.0" encoding="UTF-8" standalone="no"?>
<!-- Created with Inkscape (http://www.inkscape.org/) -->

<svg
   xmlns:dc="http://purl.org/dc/elements/1.1/"
   xmlns:cc="http://creativecommons.org/ns#"
   xmlns:rdf="http://www.w3.org/1999/02/22-rdf-syntax-ns#"
   xmlns:svg="http://www.w3.org/2000/svg"
   xmlns="http://www.w3.org/2000/svg"
   xmlns:sodipodi="http://sodipodi.sourceforge.net/DTD/sodipodi-0.dtd"
   xmlns:inkscape="http://www.inkscape.org/namespaces/inkscape"
   id="svg3355"
   version="1.1"
   inkscape:version="0.92.0 r"
   xml:space="preserve"
   width="314.28592"
   height="100"
   viewBox="0 0 314.28592 100"
   sodipodi:docname="logo-mongodb.svg"><metadata
     id="metadata3361"><rdf:RDF><cc:Work
         rdf:about=""><dc:format>image/svg+xml</dc:format><dc:type
           rdf:resource="http://purl.org/dc/dcmitype/StillImage" /><dc:title></dc:title></cc:Work></rdf:RDF></metadata><defs
     id="defs3359"><clipPath
       clipPathUnits="userSpaceOnUse"
       id="clipPath3371"><path
         d="m 325.988,28.6797 -29.961,9.9219 c 0,0 3.821,151.6324 -50.867,162.2464 -36.062,41.789 5.551,1784.902 136.559,5.976 0,0 -44.84,-22.515 -53.328,-60.742 -8.485,-38.262 -2.403,-117.4023 -2.403,-117.4023 z"
         id="path3373"
         inkscape:connector-curvature="0" /></clipPath><linearGradient
       x1="0"
       y1="0"
       x2="1"
       y2="0"
       gradientUnits="userSpaceOnUse"
       gradientTransform="matrix(344.394,-116.194,-104.815,-309.067,127.805,575.998)"
       spreadMethod="pad"
       id="linearGradient3375"><stop
         style="stop-opacity:1;stop-color:#929669"
         offset="0"
         id="stop3377" /><stop
         style="stop-opacity:1;stop-color:#929669"
         offset="0.230769"
         id="stop3379" /><stop
         style="stop-opacity:1;stop-color:#fdfcf1"
         offset="1"
         id="stop3381" /></linearGradient><clipPath
       clipPathUnits="userSpaceOnUse"
       id="clipPath3389"><path
         d="m 342.141,175.109 c 0,0 260.343,171.469 199.351,527.575 -58.742,258.718 -197.418,343.766 -212.32,376.236 -16.406,22.98 -32.93,63.71 -32.93,63.71 l 11.074,-720.86 c 0,0 -22.906,-220.11 34.825,-246.661 z"
         id="path3391"
         inkscape:connector-curvature="0" /></clipPath><linearGradient
       x1="0"
       y1="0"
       x2="1"
       y2="0"
       gradientUnits="userSpaceOnUse"
       gradientTransform="matrix(241.166,-936.211,-1007.33,-161.502,253.975,1135.85)"
       spreadMethod="pad"
       id="linearGradient3393"><stop
         style="stop-opacity:1;stop-color:#45aa3a"
         offset="0"
         id="stop3395" /><stop
         style="stop-opacity:1;stop-color:#3d9439"
         offset="1"
         id="stop3397" /></linearGradient><clipPath
       clipPathUnits="userSpaceOnUse"
       id="clipPath3405"><path
         d="m 280.785,165.527 c 0,0 -244.2108,166.598 -230.16,460.543 14.0547,293.95 186.539,438.48 220.133,464.7 21.715,23.16 22.613,32.08 24.293,54.91 15.226,-32.69 12.695,-488.418 14.308,-541.684 6.258,-207.351 -11.484,-399.328 -28.574,-438.469 z"
         id="path3407"
         inkscape:connector-curvature="0" /></clipPath><linearGradient
       x1="0"
       y1="0"
       x2="1"
       y2="0"
       gradientUnits="userSpaceOnUse"
       gradientTransform="matrix(422.094,95.9041,131.897,-394.109,24.9593,595.858)"
       spreadMethod="pad"
       id="linearGradient3409"><stop
         style="stop-opacity:1;stop-color:#41a83b"
         offset="0"
         id="stop3411" /><stop
         style="stop-opacity:1;stop-color:#5ebc44"
         offset="1"
         id="stop3413" /></linearGradient></defs><sodipodi:namedview
     pagecolor="#ffffff"
     bordercolor="#666666"
     borderopacity="1"
     objecttolerance="10"
     gridtolerance="10"
     guidetolerance="10"
     inkscape:pageopacity="0"
     inkscape:pageshadow="2"
     inkscape:window-width="2560"
     inkscape:window-height="1417"
     id="namedview3357"
     showgrid="false"
     inkscape:zoom="1.8066914"
     inkscape:cx="221.09892"
     inkscape:cy="-119.02901"
     inkscape:window-x="1366"
     inkscape:window-y="0"
     inkscape:window-maximized="1"
     inkscape:current-layer="g3363"
     inkscape:pagecheckerboard="true"
     fit-margin-top="10"
     fit-margin-left="10"
     fit-margin-right="10"
     fit-margin-bottom="10" /><g
     id="g3363"
     inkscape:groupmode="layer"
     inkscape:label="ink_ext_XXXXXX"
     transform="matrix(1.25,0,0,-1.25,3.7448587,89.999999)"><g
       id="g3365"
       transform="matrix(0.05586202,0,0,0.05586202,2.2087143,0)"><g
         id="g3367"><g
           id="g3369"
           clip-path="url(#clipPath3371)"><path
             d="m 325.988,28.6797 -29.961,9.9219 c 0,0 3.821,151.6324 -50.867,162.2464 -36.062,41.789 5.551,1784.902 136.559,5.976 0,0 -44.84,-22.515 -53.328,-60.742 -8.485,-38.262 -2.403,-117.4023 -2.403,-117.4023"
             style="fill:url(#linearGradient3375);fill-opacity:1;fill-rule:nonzero;stroke:none"
             id="path3383"
             inkscape:connector-curvature="0" /></g></g><g
         id="g3385"><g
           id="g3387"
           clip-path="url(#clipPath3389)"><path
             d="m 342.141,175.109 c 0,0 260.343,171.469 199.351,527.575 -58.742,258.718 -197.418,343.766 -212.32,376.236 -16.406,22.98 -32.93,63.71 -32.93,63.71 l 11.074,-720.86 c 0,0 -22.906,-220.11 34.825,-246.661"
             style="fill:url(#linearGradient3393);fill-opacity:1;fill-rule:nonzero;stroke:none"
             id="path3399"
             inkscape:connector-curvature="0" /></g></g><g
         id="g3401"><g
           id="g3403"
           clip-path="url(#clipPath3405)"><path
             d="m 280.785,165.527 c 0,0 -244.2108,166.598 -230.16,460.543 14.0547,293.95 186.539,438.48 220.133,464.7 21.715,23.16 22.613,32.08 24.293,54.91 15.226,-32.69 12.695,-488.418 14.308,-541.684 6.258,-207.351 -11.484,-399.328 -28.574,-438.469"
             style="fill:url(#linearGradient3409);fill-opacity:1;fill-rule:nonzero;stroke:none"
             id="path3415"
             inkscape:connector-curvature="0" /></g></g><path
         d="m 3231.65,260.41 c 17.27,-13.812 51.81,-19.5 82.26,-19.5 39.48,0 78.14,7.324 115.97,41.426 38.66,34.945 64.98,88.551 64.98,173.848 0,82.043 -31.26,148.656 -95.4,187.648 -36.21,22.742 -83.08,31.676 -136.55,31.676 -15.63,0 -31.26,-0.809 -40.31,-4.867 -2.47,-1.629 -7.4,-8.129 -7.4,-11.383 -1.65,-14.617 -1.65,-125.906 -1.65,-191.699 0,-67.422 0,-161.653 1.65,-173.036 0.83,-9.742 5.75,-26.8 16.45,-34.113 z m -164.18,451.656 c 13.98,0 67.12,-2.437 91.81,-2.437 46.05,0 78.13,2.437 164.48,2.437 72.4,0 133.27,-19.5 176.86,-56.859 52.65,-45.496 80.61,-108.855 80.61,-186.023 0,-109.668 -50.17,-173.028 -100.34,-208.774 -50.18,-37.363 -115.17,-58.484 -208.11,-58.484 -49.36,0 -134.09,1.625 -204.83,2.426 h -0.97 c -3.28,6.507 6.07,31.839 11.85,32.5 19.12,2.164 24.3,2.898 33.18,6.554 14.93,6.141 18.46,13.754 20.12,40.563 2.46,50.359 1.64,110.469 1.64,178.715 0,48.734 0.82,143.777 -0.83,173.836 -2.47,25.179 -13.14,31.675 -34.54,36.554 -10.69,2.434 -25.5,4.875 -46.06,7.313 -1.64,4.871 11.02,26.808 15.13,31.679"
         style="fill:#c0bdba;fill-opacity:1;fill-rule:nonzero;stroke:none"
         id="path3417"
         inkscape:connector-curvature="0" /><path
         d="m 3799.06,672.258 c -3.28,-0.813 -7.41,-8.938 -7.41,-13 -0.81,-29.235 -1.63,-105.594 -1.63,-158.391 0,-1.625 2.46,-4.062 4.11,-4.062 10.7,-0.825 37,-1.633 59.21,-1.633 31.26,0 49.37,4.07 59.23,8.945 26.33,12.988 38.66,41.422 38.66,72.289 0,70.672 -49.35,97.481 -122.55,97.481 -4.94,0 -18.93,0 -29.62,-1.629 z m 186.72,-324.93 c 0,71.485 -52.64,112.094 -148.89,112.094 -4.1,0 -34.55,0.824 -41.94,-0.813 -2.47,-0.8 -4.93,-2.425 -4.93,-4.05 0,-51.184 -0.83,-133.227 1.63,-165.715 1.65,-13.813 11.53,-33.309 23.86,-38.996 13.17,-7.313 42.77,-8.938 63.33,-8.938 56.76,0 106.94,31.684 106.94,106.418 z M 3650.5,712.066 c 7.41,0 29.3,-2.437 85.23,-2.437 52.64,0 95.4,1.621 146.4,1.621 63.34,0 150.53,-22.742 150.53,-116.977 0,-46.296 -32.9,-83.668 -75.67,-101.539 -2.47,-0.816 -2.47,-2.437 0,-3.25 60.87,-15.429 114.33,-52.8 114.33,-124.285 0,-69.855 -43.59,-113.726 -106.92,-141.347 -38.67,-17.051 -86.37,-22.739 -134.91,-22.739 -37.01,0 -136.2,4.063 -191.32,3.239 -5.76,2.449 5.28,28.445 10.2,32.5 13.17,0.808 23.33,1.757 37.31,5.82 19.73,4.875 22.07,11.238 24.54,40.484 1.66,25.176 1.66,115.344 1.66,179.528 0,87.73 0.81,147.027 0,176.269 -0.83,22.746 -9.06,30.059 -24.69,34.121 -12.33,2.434 -32.89,4.875 -49.34,7.313 -4.12,4.062 8.54,28.429 12.65,31.679"
         style="fill:#c0bdba;fill-opacity:1;fill-rule:nonzero;stroke:none"
         id="path3419"
         inkscape:connector-curvature="0" /><path
         d="m 707.863,202.281 c -1.371,2.188 -2.82,8.649 -2.515,16.422 0.226,5.91 1.398,9.664 2.507,10.949 15.512,2.446 22.856,4.102 31.575,6.43 14.543,3.609 20.023,11.465 20.879,30.063 2.386,43.812 2.527,125.964 1.652,183.742 l 0.012,1.703 c 0.07,6.195 0.164,14.668 -7.621,20.648 -11.407,7.512 -25.629,13.731 -43.629,19.129 -6.883,2.039 -10.692,5.66 -10.489,9.895 0.215,4.07 4.536,9.246 13.516,10.976 23.816,2.457 86.27,17.321 110.773,28.629 1.45,-1.762 3.739,-5.582 3.297,-11.676 -0.183,-2.562 -0.41,-5.242 -0.632,-8.015 -0.7,-8.164 -1.481,-17.418 -1.481,-26.649 0,-2.714 2.945,-5.289 6.07,-5.289 1.59,0 3.059,0.621 4.254,1.801 46.703,36.547 88.473,49.598 109.977,49.598 35.336,0 62.832,-16.871 84.082,-51.543 1.25,-1.836 2.92,-2.805 4.79,-2.805 1.78,0 3.47,0.918 4.46,2.391 42.94,32.535 85.5,51.957 113.95,51.957 67.34,0 107.56,-50.352 107.56,-134.66 0,-24.227 -0.24,-54.934 -0.46,-83.602 -0.2,-25.148 -0.38,-48.727 -0.38,-65.043 0,-3.953 5.29,-14.922 13.28,-17.117 9.84,-4.789 24.07,-7.238 42.03,-10.332 l 0.7,-0.113 c 1.36,-4.829 -1.5,-23.629 -4.23,-27.477 -4.46,0.035 -10.64,0.355 -18.33,0.742 -13.98,0.719 -33.14,1.684 -55.45,1.684 -44.74,0 -68.12,-0.879 -90.45,-2.321 -1.68,5.579 -2.27,23.571 -0.22,27.321 13.02,2.437 19.47,4.082 27.28,6.394 14.24,4.692 18.35,11.141 19.18,30.032 0.32,13.441 2.91,131.679 -1.68,159.753 -4.22,29.094 -26.17,63.149 -74.19,63.149 -17.81,0 -46.59,-7.399 -74.02,-28.176 -1.7,-1.652 -2.68,-4.863 -2.68,-6.973 l 0.05,-0.539 c 3.23,-15.156 3.23,-32.828 3.23,-59.57 0,-15.242 -0.1,-31.414 -0.19,-47.469 -0.18,-32.593 -0.36,-63.379 0.19,-86.629 0,-15.851 9.6,-19.632 17.31,-22.687 4.19,-0.93 7.52,-1.734 10.85,-2.527 6.47,-1.555 13.16,-3.161 23.06,-4.747 1.35,-3.125 1.48,-12.457 -0.38,-20.437 -1.04,-4.41 -2.24,-6.355 -2.86,-6.984 -24.89,0.851 -50.42,1.597 -87.25,1.597 -11.166,0 -29.4,-0.484 -45.482,-0.91 -13.035,-0.348 -25.383,-0.687 -32.399,-0.715 -1.015,1.606 -2.437,6.75 -2.437,14.16 0,6.887 1.266,11.743 2.566,13.239 3.457,0.64 6.75,1.222 9.891,1.781 8.641,1.539 16.101,2.852 23.262,4.613 12.191,3.711 16.765,10.485 17.656,25.969 2.379,36.152 4.238,140.289 -0.883,166.371 -8.715,41.848 -32.57,63.059 -70.883,63.059 -22.465,0 -50.816,-10.793 -74,-28.153 -3.886,-2.863 -6.824,-10.07 -6.824,-16.722 0,-12.399 -0.039,-27.168 -0.09,-43 -0.156,-52.305 -0.34,-117.407 0.934,-145.578 0.781,-8.657 3.797,-18.965 20.144,-22.77 3.563,-0.996 9.743,-2.031 16.903,-3.207 4.121,-0.688 8.629,-1.434 13.257,-2.266 1.668,-4.476 0.649,-22.031 -2.203,-27.496 -7.148,0.047 -15.941,0.453 -26.031,0.899 -15.41,0.675 -34.578,1.539 -56.426,1.539 -25.707,0 -43.609,-0.864 -57.984,-1.539 -9.641,-0.453 -18.004,-0.86 -26.348,-0.899 v 0"
         style="fill:#ffffff;fill-opacity:1;fill-rule:nonzero;stroke:none"
         id="path3421"
         inkscape:connector-curvature="0" /><path
         d="m 1523.89,506.098 c -14.98,0 -28.95,-3.918 -39.35,-11.035 -28.57,-17.352 -43.1,-51.997 -43.1,-102.887 0,-95.305 47.77,-161.856 116.16,-161.856 20.18,0 36.63,5.793 50.3,17.719 21.02,17.129 32.16,52.109 32.16,101.09 0,93.891 -46.69,156.969 -116.17,156.969 z m 13.17,-311.129 c -123.58,0 -167.61,90.547 -167.61,175.269 0,59.184 24.22,105.461 72.04,137.532 33.98,20.863 74.54,32.867 111.19,32.867 94.31,0 160.19,-67.735 160.19,-164.719 0,-65.941 -26.33,-117.984 -76.12,-150.512 -23.87,-14.633 -65.31,-30.437 -99.69,-30.437 v 0"
         style="fill:#ffffff;fill-opacity:1;fill-rule:nonzero;stroke:none"
         id="path3423"
         inkscape:connector-curvature="0" /><path
         d="m 2803.61,506.098 c -14.99,0 -28.98,-3.918 -39.37,-11.035 -28.54,-17.352 -43.09,-51.985 -43.09,-102.887 0,-95.305 47.77,-161.856 116.17,-161.856 20.19,0 36.63,5.793 50.3,17.727 21.02,17.121 32.16,52.094 32.16,101.07 0,93.891 -46.68,156.981 -116.17,156.981 z m 13.16,-311.129 c -123.59,0 -167.62,90.539 -167.62,175.261 0,59.2 24.25,105.481 72.06,137.551 33.98,20.86 74.54,32.856 111.19,32.856 94.31,0 160.19,-67.742 160.19,-164.711 0,-65.961 -26.33,-118.004 -76.12,-150.508 -23.88,-14.645 -65.3,-30.449 -99.7,-30.449 v 0"
         style="fill:#ffffff;fill-opacity:1;fill-rule:nonzero;stroke:none"
         id="path3425"
         inkscape:connector-curvature="0" /><path
         d="m 2390.07,509.336 c -38.1,0 -62.72,-30.051 -62.72,-76.551 0,-46.933 21.17,-101.734 80.82,-101.734 10.25,0 28.82,4.547 38.01,14.679 13.86,12.719 22.91,38.997 22.91,66.754 0,60.653 -29.55,96.852 -79.02,96.852 z m -4.93,-320.856 c -14.31,0 -24.72,-4.16 -30.94,-7.648 -30.15,-19.309 -44.13,-38.594 -44.13,-60.793 0,-20.9374 8.14,-37.5702 25.62,-52.3593 21.18,-17.918 49.72,-26.6289 87.28,-26.6289 73.86,0 106.98,39.668 106.98,78.9882 0,27.359 -13.75,45.711 -42.03,56.078 -21.8,7.961 -58.21,12.363 -102.78,12.363 z M 2390.07,0 c -44.37,0 -76.33,9.35156 -103.65,30.3398 -26.56,20.4805 -38.46,50.8516 -38.46,71.8402 0,6.039 1.43,21.64 14.56,36.539 7.73,8.769 25.64,25.195 66.99,53.609 1.27,0.477 2.16,1.731 2.16,3.25 0,1.695 -1.1,3.067 -2.6,3.387 -34.09,13.035 -44.37,34.43 -47.47,46.035 -0.04,0.418 -0.19,1.086 -0.34,1.793 -0.98,4.551 -1.89,8.855 4.27,13.277 4.77,3.403 12.44,7.938 20.56,12.727 11.98,7.07 25.56,15.078 33.08,21.519 1.19,1.161 1.68,2.864 1.39,4.567 -0.28,1.722 -1.28,3.133 -2.76,3.859 -50.45,16.934 -75.85,54.363 -75.85,111.367 0,36.801 16.99,70.063 46.61,91.274 20.28,16.015 71.21,35.269 104.21,35.269 l 1.92,-0.015 c 33.94,-0.805 53.08,-7.903 79.56,-17.703 14.37,-5.317 27.99,-7.473 47.02,-7.473 28.1,0 40.37,8.894 50.9,19.109 0.61,-1.265 2.04,-5.281 2.68,-14.527 0.67,-9.43 -1.91,-23.406 -9.12,-33.375 -5.75,-7.949 -19.06,-13.715 -31.64,-13.715 -1.26,0 -2.49,0.059 -3.69,0.184 -12.94,1.265 -19.02,3.152 -19.08,3.179 l -3.17,-1.101 c -1,-1.461 -0.35,-3.082 0.47,-5.137 0.2,-0.492 0.4,-0.957 0.47,-1.265 1.66,-6.579 4.59,-25.774 4.59,-31.153 0,-59.781 -23.62,-85.855 -49.14,-105.133 -24.34,-18.355 -52.81,-29.39 -84.89,-32.773 h -0.03 c -0.65,0 -3.69,-0.274 -9.82,-0.813 -3.95,-0.359 -8.87,-0.804 -9.6,-0.804 l -0.72,-0.098 c -5.57,-1.574 -20.04,-8.441 -20.04,-21.226 0,-10.641 6.56,-23.825 37.83,-26.18 6.34,-0.477 13.15,-0.949 20.25,-1.434 41.29,-2.875 92.85,-6.453 117.11,-14.672 33.38,-12.148 54.15,-42.011 54.15,-77.933 0,-53.653 -38.18,-104.0823 -102.14,-134.9143 C 2455.62,7.10156 2424.13,0 2390.07,0 v 0"
         style="fill:#ffffff;fill-opacity:1;fill-rule:nonzero;stroke:none"
         id="path3427"
         inkscape:connector-curvature="0" /><path
         d="m 2187.16,230.891 c -18.09,2.433 -31.26,4.875 -46.88,12.183 -2.47,1.625 -5.77,8.938 -5.77,11.375 -1.64,25.184 -1.64,98.293 -1.64,146.215 0,38.996 -6.58,73.109 -23.03,97.492 -19.74,27.614 -47.7,43.86 -83.9,43.86 -32.07,0 -74.85,-21.934 -110.21,-51.996 -0.82,-0.809 -6.26,-5.957 -6.14,2.043 0.13,7.988 1.36,24.246 2.1,34.488 0.75,10.234 -5.38,15.058 -5.38,15.058 -23.04,-11.371 -87.9,-26.769 -111.85,-29.246 -17.51,-3.367 -21.92,-20.179 -3.28,-25.984 v -0.004 c 0,-0.031 0.18,-0.059 0.28,-0.09 19.51,-5.863 32.65,-12.129 42.47,-18.594 7.4,-5.687 6.57,-13.812 6.57,-20.312 0.82,-54.422 0.82,-138.102 -1.65,-183.586 -0.82,-17.875 -5.76,-24.363 -18.92,-27.625 l 1.21,0.406 c -9.88,-2.426 -18.1,-4.062 -30.44,-5.683 -4.11,-4.055 -4.11,-27.614 0,-32.5 8.22,0 50.18,2.449 84.72,2.449 47.7,0 72.38,-2.449 84.72,-2.449 4.94,5.699 6.58,27.632 3.29,32.5 -13.98,0.808 -23.85,2.433 -33.73,4.875 -13.16,3.246 -16.45,9.746 -17.26,24.371 -1.65,38.172 -1.65,119.406 -1.65,174.648 0,15.438 4.12,22.75 9.05,26.813 16.45,14.621 43.59,24.363 67.45,24.363 23.02,0 38.65,-7.313 50.17,-17.055 15.63,-12.996 21.39,-31.683 23.03,-45.492 3.29,-30.875 2.46,-92.609 2.46,-146.219 0,-29.246 -2.46,-36.558 -13.15,-39.808 -4.94,-2.438 -18.1,-4.875 -33.73,-6.496 -4.92,-4.868 -3.29,-27.614 0,-32.5 21.39,0 46.07,2.449 82.26,2.449 45.24,0 74.02,-2.449 85.54,-2.449 4.94,5.699 6.57,26.82 3.29,32.5"
         style="fill:#ffffff;fill-opacity:1;fill-rule:nonzero;stroke:none"
         id="path3429"
         inkscape:connector-curvature="0" /><path
         d="m 4187.05,270.973 h 13.92 c 11.25,0 15.54,3.922 15.54,14.097 0,10.344 -4.12,13.746 -16.79,13.746 h -12.67 z m 29.63,-43.727 -16.42,35.344 h -13.21 v -35.344 h -9.63 v 80.317 h 23.74 c 17.66,0 24.98,-7.86 24.98,-22.493 0,-11.773 -5.53,-19.269 -15.88,-21.422 l 16.96,-36.402 z m -15.52,97.973 c -32.32,0 -58.01,-25.516 -58.01,-57.996 0,-31.942 25.69,-57.645 57.82,-57.645 31.96,0 57.65,25.703 57.65,57.645 0,32.652 -24.98,57.996 -57.46,57.996 z m -0.19,-121.352 c -35.69,0 -63.53,27.844 -63.53,63.531 0,35.879 27.84,63.532 63.72,63.532 34.98,0 63.35,-28.016 63.35,-62.629 0,-36.231 -27.83,-64.434 -63.54,-64.434"
         style="fill:#c0bdba;fill-opacity:1;fill-rule:nonzero;stroke:none"
         id="path3431"
         inkscape:connector-curvature="0" /></g></g></svg>